G75*
%MOIN*%
%OFA0B0*%
%FSLAX25Y25*%
%IPPOS*%
%LPD*%
%AMOC8*
5,1,8,0,0,1.08239X$1,22.5*
%
%ADD10C,0.00500*%
%ADD11C,0.00600*%
D10*
X0057260Y0123083D02*
X0057260Y0158517D01*
X0208835Y0158517D02*
X0208835Y0146706D01*
X0214740Y0146706D01*
X0214740Y0134894D01*
X0208835Y0134894D01*
X0208835Y0123083D01*
X0257260Y0123083D02*
X0257260Y0158517D01*
X0314999Y0139969D02*
X0315583Y0140553D01*
X0316750Y0140553D01*
X0317334Y0139969D01*
X0317334Y0137634D01*
X0316750Y0137050D01*
X0315583Y0137050D01*
X0314999Y0137634D01*
X0318682Y0137050D02*
X0321017Y0137050D01*
X0321017Y0140553D01*
X0322365Y0140553D02*
X0323533Y0140553D01*
X0322949Y0140553D02*
X0322949Y0137634D01*
X0323533Y0137050D01*
X0324117Y0137050D01*
X0324701Y0137634D01*
X0326048Y0137634D02*
X0326632Y0137050D01*
X0327800Y0137050D01*
X0328384Y0137634D01*
X0328384Y0139969D01*
X0327800Y0140553D01*
X0326632Y0140553D01*
X0326048Y0139969D01*
X0329732Y0137050D02*
X0332067Y0137050D01*
X0332067Y0140553D01*
X0333415Y0140553D02*
X0334582Y0140553D01*
X0333999Y0140553D02*
X0333999Y0137634D01*
X0334582Y0137050D01*
X0335166Y0137050D01*
X0335750Y0137634D01*
X0337098Y0137634D02*
X0337682Y0137050D01*
X0338849Y0137050D01*
X0339433Y0137634D01*
X0339433Y0139969D01*
X0338849Y0140553D01*
X0337682Y0140553D01*
X0337098Y0139969D01*
X0340781Y0137050D02*
X0343116Y0137050D01*
X0343116Y0140553D01*
X0344464Y0140553D02*
X0345632Y0140553D01*
X0345048Y0140553D02*
X0345048Y0137634D01*
X0345632Y0137050D01*
X0346216Y0137050D01*
X0346799Y0137634D01*
X0348147Y0137634D02*
X0348731Y0137050D01*
X0349899Y0137050D01*
X0350483Y0137634D01*
X0350483Y0139969D01*
X0349899Y0140553D01*
X0348731Y0140553D01*
X0348147Y0139969D01*
X0351830Y0137050D02*
X0354166Y0137050D01*
X0354166Y0140553D01*
X0355514Y0140553D02*
X0356681Y0140553D01*
X0356097Y0140553D02*
X0356097Y0137634D01*
X0356681Y0137050D01*
X0357265Y0137050D01*
X0357849Y0137634D01*
X0408835Y0134894D02*
X0408835Y0123083D01*
X0408835Y0134894D02*
X0414740Y0134894D01*
X0414740Y0146706D01*
X0408835Y0146706D01*
X0408835Y0158517D01*
X0457260Y0158517D02*
X0457260Y0123083D01*
X0524501Y0056199D02*
X0527503Y0056199D01*
X0528254Y0055448D01*
X0528254Y0053196D01*
X0523750Y0053196D01*
X0523750Y0055448D01*
X0524501Y0056199D01*
X0523750Y0051595D02*
X0528254Y0051595D01*
X0528254Y0048592D02*
X0523750Y0048592D01*
X0524501Y0046991D02*
X0526002Y0046991D01*
X0526002Y0045489D01*
X0527503Y0043988D02*
X0524501Y0043988D01*
X0523750Y0044739D01*
X0523750Y0046240D01*
X0524501Y0046991D01*
X0527503Y0046991D02*
X0528254Y0046240D01*
X0528254Y0044739D01*
X0527503Y0043988D01*
X0528254Y0048592D02*
X0523750Y0051595D01*
X0524501Y0027449D02*
X0523750Y0026698D01*
X0523750Y0025197D01*
X0524501Y0024446D01*
X0527503Y0024446D01*
X0528254Y0025197D01*
X0528254Y0026698D01*
X0527503Y0027449D01*
X0527503Y0022845D02*
X0528254Y0022094D01*
X0528254Y0020593D01*
X0527503Y0019842D01*
X0524501Y0019842D01*
X0523750Y0020593D01*
X0523750Y0022094D01*
X0524501Y0022845D01*
X0525251Y0018241D02*
X0528254Y0018241D01*
X0525251Y0018241D02*
X0523750Y0016739D01*
X0525251Y0015238D01*
X0528254Y0015238D01*
X0608835Y0123083D02*
X0608835Y0134894D01*
X0614740Y0134894D01*
X0614740Y0146706D01*
X0608835Y0146706D01*
X0608835Y0158517D01*
D11*
X0539000Y0061300D02*
X0533000Y0061300D01*
X0532940Y0061298D01*
X0532879Y0061293D01*
X0532820Y0061284D01*
X0532761Y0061271D01*
X0532702Y0061255D01*
X0532645Y0061235D01*
X0532590Y0061212D01*
X0532535Y0061185D01*
X0532483Y0061156D01*
X0532432Y0061123D01*
X0532383Y0061087D01*
X0532337Y0061049D01*
X0532293Y0061007D01*
X0532251Y0060963D01*
X0532213Y0060917D01*
X0532177Y0060868D01*
X0532144Y0060817D01*
X0532115Y0060765D01*
X0532088Y0060710D01*
X0532065Y0060655D01*
X0532045Y0060598D01*
X0532029Y0060539D01*
X0532016Y0060480D01*
X0532007Y0060421D01*
X0532002Y0060360D01*
X0532000Y0060300D01*
X0532000Y0043300D01*
X0532002Y0043240D01*
X0532007Y0043179D01*
X0532016Y0043120D01*
X0532029Y0043061D01*
X0532045Y0043002D01*
X0532065Y0042945D01*
X0532088Y0042890D01*
X0532115Y0042835D01*
X0532144Y0042783D01*
X0532177Y0042732D01*
X0532213Y0042683D01*
X0532251Y0042637D01*
X0532293Y0042593D01*
X0532337Y0042551D01*
X0532383Y0042513D01*
X0532432Y0042477D01*
X0532483Y0042444D01*
X0532535Y0042415D01*
X0532590Y0042388D01*
X0532645Y0042365D01*
X0532702Y0042345D01*
X0532761Y0042329D01*
X0532820Y0042316D01*
X0532879Y0042307D01*
X0532940Y0042302D01*
X0533000Y0042300D01*
X0539000Y0042300D01*
X0539060Y0042302D01*
X0539121Y0042307D01*
X0539180Y0042316D01*
X0539239Y0042329D01*
X0539298Y0042345D01*
X0539355Y0042365D01*
X0539410Y0042388D01*
X0539465Y0042415D01*
X0539517Y0042444D01*
X0539568Y0042477D01*
X0539617Y0042513D01*
X0539663Y0042551D01*
X0539707Y0042593D01*
X0539749Y0042637D01*
X0539787Y0042683D01*
X0539823Y0042732D01*
X0539856Y0042783D01*
X0539885Y0042835D01*
X0539912Y0042890D01*
X0539935Y0042945D01*
X0539955Y0043002D01*
X0539971Y0043061D01*
X0539984Y0043120D01*
X0539993Y0043179D01*
X0539998Y0043240D01*
X0540000Y0043300D01*
X0540000Y0060300D01*
X0539998Y0060360D01*
X0539993Y0060421D01*
X0539984Y0060480D01*
X0539971Y0060539D01*
X0539955Y0060598D01*
X0539935Y0060655D01*
X0539912Y0060710D01*
X0539885Y0060765D01*
X0539856Y0060817D01*
X0539823Y0060868D01*
X0539787Y0060917D01*
X0539749Y0060963D01*
X0539707Y0061007D01*
X0539663Y0061049D01*
X0539617Y0061087D01*
X0539568Y0061123D01*
X0539517Y0061156D01*
X0539465Y0061185D01*
X0539410Y0061212D01*
X0539355Y0061235D01*
X0539298Y0061255D01*
X0539239Y0061271D01*
X0539180Y0061284D01*
X0539121Y0061293D01*
X0539060Y0061298D01*
X0539000Y0061300D01*
X0539000Y0031300D02*
X0533000Y0031300D01*
X0532940Y0031298D01*
X0532879Y0031293D01*
X0532820Y0031284D01*
X0532761Y0031271D01*
X0532702Y0031255D01*
X0532645Y0031235D01*
X0532590Y0031212D01*
X0532535Y0031185D01*
X0532483Y0031156D01*
X0532432Y0031123D01*
X0532383Y0031087D01*
X0532337Y0031049D01*
X0532293Y0031007D01*
X0532251Y0030963D01*
X0532213Y0030917D01*
X0532177Y0030868D01*
X0532144Y0030817D01*
X0532115Y0030765D01*
X0532088Y0030710D01*
X0532065Y0030655D01*
X0532045Y0030598D01*
X0532029Y0030539D01*
X0532016Y0030480D01*
X0532007Y0030421D01*
X0532002Y0030360D01*
X0532000Y0030300D01*
X0532000Y0013300D01*
X0532002Y0013240D01*
X0532007Y0013179D01*
X0532016Y0013120D01*
X0532029Y0013061D01*
X0532045Y0013002D01*
X0532065Y0012945D01*
X0532088Y0012890D01*
X0532115Y0012835D01*
X0532144Y0012783D01*
X0532177Y0012732D01*
X0532213Y0012683D01*
X0532251Y0012637D01*
X0532293Y0012593D01*
X0532337Y0012551D01*
X0532383Y0012513D01*
X0532432Y0012477D01*
X0532483Y0012444D01*
X0532535Y0012415D01*
X0532590Y0012388D01*
X0532645Y0012365D01*
X0532702Y0012345D01*
X0532761Y0012329D01*
X0532820Y0012316D01*
X0532879Y0012307D01*
X0532940Y0012302D01*
X0533000Y0012300D01*
X0539000Y0012300D01*
X0539060Y0012302D01*
X0539121Y0012307D01*
X0539180Y0012316D01*
X0539239Y0012329D01*
X0539298Y0012345D01*
X0539355Y0012365D01*
X0539410Y0012388D01*
X0539465Y0012415D01*
X0539517Y0012444D01*
X0539568Y0012477D01*
X0539617Y0012513D01*
X0539663Y0012551D01*
X0539707Y0012593D01*
X0539749Y0012637D01*
X0539787Y0012683D01*
X0539823Y0012732D01*
X0539856Y0012783D01*
X0539885Y0012835D01*
X0539912Y0012890D01*
X0539935Y0012945D01*
X0539955Y0013002D01*
X0539971Y0013061D01*
X0539984Y0013120D01*
X0539993Y0013179D01*
X0539998Y0013240D01*
X0540000Y0013300D01*
X0540000Y0030300D01*
X0539998Y0030360D01*
X0539993Y0030421D01*
X0539984Y0030480D01*
X0539971Y0030539D01*
X0539955Y0030598D01*
X0539935Y0030655D01*
X0539912Y0030710D01*
X0539885Y0030765D01*
X0539856Y0030817D01*
X0539823Y0030868D01*
X0539787Y0030917D01*
X0539749Y0030963D01*
X0539707Y0031007D01*
X0539663Y0031049D01*
X0539617Y0031087D01*
X0539568Y0031123D01*
X0539517Y0031156D01*
X0539465Y0031185D01*
X0539410Y0031212D01*
X0539355Y0031235D01*
X0539298Y0031255D01*
X0539239Y0031271D01*
X0539180Y0031284D01*
X0539121Y0031293D01*
X0539060Y0031298D01*
X0539000Y0031300D01*
M02*
