G75*
%MOIN*%
%OFA0B0*%
%FSLAX25Y25*%
%IPPOS*%
%LPD*%
%AMOC8*
5,1,8,0,0,1.08239X$1,22.5*
%
%ADD10C,0.00000*%
D10*
X0021000Y0001800D02*
X0651000Y0001800D01*
X0644500Y0021800D02*
X0644502Y0021961D01*
X0644508Y0022121D01*
X0644518Y0022282D01*
X0644532Y0022442D01*
X0644550Y0022602D01*
X0644571Y0022761D01*
X0644597Y0022920D01*
X0644627Y0023078D01*
X0644660Y0023235D01*
X0644698Y0023392D01*
X0644739Y0023547D01*
X0644784Y0023701D01*
X0644833Y0023854D01*
X0644886Y0024006D01*
X0644942Y0024157D01*
X0645003Y0024306D01*
X0645066Y0024454D01*
X0645134Y0024600D01*
X0645205Y0024744D01*
X0645279Y0024886D01*
X0645357Y0025027D01*
X0645439Y0025165D01*
X0645524Y0025302D01*
X0645612Y0025436D01*
X0645704Y0025568D01*
X0645799Y0025698D01*
X0645897Y0025826D01*
X0645998Y0025951D01*
X0646102Y0026073D01*
X0646209Y0026193D01*
X0646319Y0026310D01*
X0646432Y0026425D01*
X0646548Y0026536D01*
X0646667Y0026645D01*
X0646788Y0026750D01*
X0646912Y0026853D01*
X0647038Y0026953D01*
X0647166Y0027049D01*
X0647297Y0027142D01*
X0647431Y0027232D01*
X0647566Y0027319D01*
X0647704Y0027402D01*
X0647843Y0027482D01*
X0647985Y0027558D01*
X0648128Y0027631D01*
X0648273Y0027700D01*
X0648420Y0027766D01*
X0648568Y0027828D01*
X0648718Y0027886D01*
X0648869Y0027941D01*
X0649022Y0027992D01*
X0649176Y0028039D01*
X0649331Y0028082D01*
X0649487Y0028121D01*
X0649643Y0028157D01*
X0649801Y0028188D01*
X0649959Y0028216D01*
X0650118Y0028240D01*
X0650278Y0028260D01*
X0650438Y0028276D01*
X0650598Y0028288D01*
X0650759Y0028296D01*
X0650920Y0028300D01*
X0651080Y0028300D01*
X0651241Y0028296D01*
X0651402Y0028288D01*
X0651562Y0028276D01*
X0651722Y0028260D01*
X0651882Y0028240D01*
X0652041Y0028216D01*
X0652199Y0028188D01*
X0652357Y0028157D01*
X0652513Y0028121D01*
X0652669Y0028082D01*
X0652824Y0028039D01*
X0652978Y0027992D01*
X0653131Y0027941D01*
X0653282Y0027886D01*
X0653432Y0027828D01*
X0653580Y0027766D01*
X0653727Y0027700D01*
X0653872Y0027631D01*
X0654015Y0027558D01*
X0654157Y0027482D01*
X0654296Y0027402D01*
X0654434Y0027319D01*
X0654569Y0027232D01*
X0654703Y0027142D01*
X0654834Y0027049D01*
X0654962Y0026953D01*
X0655088Y0026853D01*
X0655212Y0026750D01*
X0655333Y0026645D01*
X0655452Y0026536D01*
X0655568Y0026425D01*
X0655681Y0026310D01*
X0655791Y0026193D01*
X0655898Y0026073D01*
X0656002Y0025951D01*
X0656103Y0025826D01*
X0656201Y0025698D01*
X0656296Y0025568D01*
X0656388Y0025436D01*
X0656476Y0025302D01*
X0656561Y0025165D01*
X0656643Y0025027D01*
X0656721Y0024886D01*
X0656795Y0024744D01*
X0656866Y0024600D01*
X0656934Y0024454D01*
X0656997Y0024306D01*
X0657058Y0024157D01*
X0657114Y0024006D01*
X0657167Y0023854D01*
X0657216Y0023701D01*
X0657261Y0023547D01*
X0657302Y0023392D01*
X0657340Y0023235D01*
X0657373Y0023078D01*
X0657403Y0022920D01*
X0657429Y0022761D01*
X0657450Y0022602D01*
X0657468Y0022442D01*
X0657482Y0022282D01*
X0657492Y0022121D01*
X0657498Y0021961D01*
X0657500Y0021800D01*
X0657498Y0021639D01*
X0657492Y0021479D01*
X0657482Y0021318D01*
X0657468Y0021158D01*
X0657450Y0020998D01*
X0657429Y0020839D01*
X0657403Y0020680D01*
X0657373Y0020522D01*
X0657340Y0020365D01*
X0657302Y0020208D01*
X0657261Y0020053D01*
X0657216Y0019899D01*
X0657167Y0019746D01*
X0657114Y0019594D01*
X0657058Y0019443D01*
X0656997Y0019294D01*
X0656934Y0019146D01*
X0656866Y0019000D01*
X0656795Y0018856D01*
X0656721Y0018714D01*
X0656643Y0018573D01*
X0656561Y0018435D01*
X0656476Y0018298D01*
X0656388Y0018164D01*
X0656296Y0018032D01*
X0656201Y0017902D01*
X0656103Y0017774D01*
X0656002Y0017649D01*
X0655898Y0017527D01*
X0655791Y0017407D01*
X0655681Y0017290D01*
X0655568Y0017175D01*
X0655452Y0017064D01*
X0655333Y0016955D01*
X0655212Y0016850D01*
X0655088Y0016747D01*
X0654962Y0016647D01*
X0654834Y0016551D01*
X0654703Y0016458D01*
X0654569Y0016368D01*
X0654434Y0016281D01*
X0654296Y0016198D01*
X0654157Y0016118D01*
X0654015Y0016042D01*
X0653872Y0015969D01*
X0653727Y0015900D01*
X0653580Y0015834D01*
X0653432Y0015772D01*
X0653282Y0015714D01*
X0653131Y0015659D01*
X0652978Y0015608D01*
X0652824Y0015561D01*
X0652669Y0015518D01*
X0652513Y0015479D01*
X0652357Y0015443D01*
X0652199Y0015412D01*
X0652041Y0015384D01*
X0651882Y0015360D01*
X0651722Y0015340D01*
X0651562Y0015324D01*
X0651402Y0015312D01*
X0651241Y0015304D01*
X0651080Y0015300D01*
X0650920Y0015300D01*
X0650759Y0015304D01*
X0650598Y0015312D01*
X0650438Y0015324D01*
X0650278Y0015340D01*
X0650118Y0015360D01*
X0649959Y0015384D01*
X0649801Y0015412D01*
X0649643Y0015443D01*
X0649487Y0015479D01*
X0649331Y0015518D01*
X0649176Y0015561D01*
X0649022Y0015608D01*
X0648869Y0015659D01*
X0648718Y0015714D01*
X0648568Y0015772D01*
X0648420Y0015834D01*
X0648273Y0015900D01*
X0648128Y0015969D01*
X0647985Y0016042D01*
X0647843Y0016118D01*
X0647704Y0016198D01*
X0647566Y0016281D01*
X0647431Y0016368D01*
X0647297Y0016458D01*
X0647166Y0016551D01*
X0647038Y0016647D01*
X0646912Y0016747D01*
X0646788Y0016850D01*
X0646667Y0016955D01*
X0646548Y0017064D01*
X0646432Y0017175D01*
X0646319Y0017290D01*
X0646209Y0017407D01*
X0646102Y0017527D01*
X0645998Y0017649D01*
X0645897Y0017774D01*
X0645799Y0017902D01*
X0645704Y0018032D01*
X0645612Y0018164D01*
X0645524Y0018298D01*
X0645439Y0018435D01*
X0645357Y0018573D01*
X0645279Y0018714D01*
X0645205Y0018856D01*
X0645134Y0019000D01*
X0645066Y0019146D01*
X0645003Y0019294D01*
X0644942Y0019443D01*
X0644886Y0019594D01*
X0644833Y0019746D01*
X0644784Y0019899D01*
X0644739Y0020053D01*
X0644698Y0020208D01*
X0644660Y0020365D01*
X0644627Y0020522D01*
X0644597Y0020680D01*
X0644571Y0020839D01*
X0644550Y0020998D01*
X0644532Y0021158D01*
X0644518Y0021318D01*
X0644508Y0021479D01*
X0644502Y0021639D01*
X0644500Y0021800D01*
X0651000Y0001800D02*
X0651483Y0001806D01*
X0651966Y0001823D01*
X0652449Y0001853D01*
X0652930Y0001893D01*
X0653411Y0001946D01*
X0653890Y0002010D01*
X0654367Y0002085D01*
X0654843Y0002173D01*
X0655316Y0002271D01*
X0655786Y0002381D01*
X0656254Y0002502D01*
X0656719Y0002635D01*
X0657180Y0002779D01*
X0657638Y0002934D01*
X0658092Y0003100D01*
X0658542Y0003277D01*
X0658987Y0003464D01*
X0659428Y0003663D01*
X0659864Y0003871D01*
X0660294Y0004091D01*
X0660720Y0004321D01*
X0661139Y0004561D01*
X0661553Y0004811D01*
X0661960Y0005071D01*
X0662361Y0005340D01*
X0662756Y0005620D01*
X0663143Y0005908D01*
X0663524Y0006207D01*
X0663897Y0006514D01*
X0664262Y0006830D01*
X0664620Y0007155D01*
X0664970Y0007488D01*
X0665312Y0007830D01*
X0665645Y0008180D01*
X0665970Y0008538D01*
X0666286Y0008903D01*
X0666593Y0009276D01*
X0666892Y0009657D01*
X0667180Y0010044D01*
X0667460Y0010439D01*
X0667729Y0010840D01*
X0667989Y0011247D01*
X0668239Y0011661D01*
X0668479Y0012080D01*
X0668709Y0012506D01*
X0668929Y0012936D01*
X0669137Y0013372D01*
X0669336Y0013813D01*
X0669523Y0014258D01*
X0669700Y0014708D01*
X0669866Y0015162D01*
X0670021Y0015620D01*
X0670165Y0016081D01*
X0670298Y0016546D01*
X0670419Y0017014D01*
X0670529Y0017484D01*
X0670627Y0017957D01*
X0670715Y0018433D01*
X0670790Y0018910D01*
X0670854Y0019389D01*
X0670907Y0019870D01*
X0670947Y0020351D01*
X0670977Y0020834D01*
X0670994Y0021317D01*
X0671000Y0021800D01*
X0671000Y0146800D01*
X0644500Y0146800D02*
X0644502Y0146961D01*
X0644508Y0147121D01*
X0644518Y0147282D01*
X0644532Y0147442D01*
X0644550Y0147602D01*
X0644571Y0147761D01*
X0644597Y0147920D01*
X0644627Y0148078D01*
X0644660Y0148235D01*
X0644698Y0148392D01*
X0644739Y0148547D01*
X0644784Y0148701D01*
X0644833Y0148854D01*
X0644886Y0149006D01*
X0644942Y0149157D01*
X0645003Y0149306D01*
X0645066Y0149454D01*
X0645134Y0149600D01*
X0645205Y0149744D01*
X0645279Y0149886D01*
X0645357Y0150027D01*
X0645439Y0150165D01*
X0645524Y0150302D01*
X0645612Y0150436D01*
X0645704Y0150568D01*
X0645799Y0150698D01*
X0645897Y0150826D01*
X0645998Y0150951D01*
X0646102Y0151073D01*
X0646209Y0151193D01*
X0646319Y0151310D01*
X0646432Y0151425D01*
X0646548Y0151536D01*
X0646667Y0151645D01*
X0646788Y0151750D01*
X0646912Y0151853D01*
X0647038Y0151953D01*
X0647166Y0152049D01*
X0647297Y0152142D01*
X0647431Y0152232D01*
X0647566Y0152319D01*
X0647704Y0152402D01*
X0647843Y0152482D01*
X0647985Y0152558D01*
X0648128Y0152631D01*
X0648273Y0152700D01*
X0648420Y0152766D01*
X0648568Y0152828D01*
X0648718Y0152886D01*
X0648869Y0152941D01*
X0649022Y0152992D01*
X0649176Y0153039D01*
X0649331Y0153082D01*
X0649487Y0153121D01*
X0649643Y0153157D01*
X0649801Y0153188D01*
X0649959Y0153216D01*
X0650118Y0153240D01*
X0650278Y0153260D01*
X0650438Y0153276D01*
X0650598Y0153288D01*
X0650759Y0153296D01*
X0650920Y0153300D01*
X0651080Y0153300D01*
X0651241Y0153296D01*
X0651402Y0153288D01*
X0651562Y0153276D01*
X0651722Y0153260D01*
X0651882Y0153240D01*
X0652041Y0153216D01*
X0652199Y0153188D01*
X0652357Y0153157D01*
X0652513Y0153121D01*
X0652669Y0153082D01*
X0652824Y0153039D01*
X0652978Y0152992D01*
X0653131Y0152941D01*
X0653282Y0152886D01*
X0653432Y0152828D01*
X0653580Y0152766D01*
X0653727Y0152700D01*
X0653872Y0152631D01*
X0654015Y0152558D01*
X0654157Y0152482D01*
X0654296Y0152402D01*
X0654434Y0152319D01*
X0654569Y0152232D01*
X0654703Y0152142D01*
X0654834Y0152049D01*
X0654962Y0151953D01*
X0655088Y0151853D01*
X0655212Y0151750D01*
X0655333Y0151645D01*
X0655452Y0151536D01*
X0655568Y0151425D01*
X0655681Y0151310D01*
X0655791Y0151193D01*
X0655898Y0151073D01*
X0656002Y0150951D01*
X0656103Y0150826D01*
X0656201Y0150698D01*
X0656296Y0150568D01*
X0656388Y0150436D01*
X0656476Y0150302D01*
X0656561Y0150165D01*
X0656643Y0150027D01*
X0656721Y0149886D01*
X0656795Y0149744D01*
X0656866Y0149600D01*
X0656934Y0149454D01*
X0656997Y0149306D01*
X0657058Y0149157D01*
X0657114Y0149006D01*
X0657167Y0148854D01*
X0657216Y0148701D01*
X0657261Y0148547D01*
X0657302Y0148392D01*
X0657340Y0148235D01*
X0657373Y0148078D01*
X0657403Y0147920D01*
X0657429Y0147761D01*
X0657450Y0147602D01*
X0657468Y0147442D01*
X0657482Y0147282D01*
X0657492Y0147121D01*
X0657498Y0146961D01*
X0657500Y0146800D01*
X0657498Y0146639D01*
X0657492Y0146479D01*
X0657482Y0146318D01*
X0657468Y0146158D01*
X0657450Y0145998D01*
X0657429Y0145839D01*
X0657403Y0145680D01*
X0657373Y0145522D01*
X0657340Y0145365D01*
X0657302Y0145208D01*
X0657261Y0145053D01*
X0657216Y0144899D01*
X0657167Y0144746D01*
X0657114Y0144594D01*
X0657058Y0144443D01*
X0656997Y0144294D01*
X0656934Y0144146D01*
X0656866Y0144000D01*
X0656795Y0143856D01*
X0656721Y0143714D01*
X0656643Y0143573D01*
X0656561Y0143435D01*
X0656476Y0143298D01*
X0656388Y0143164D01*
X0656296Y0143032D01*
X0656201Y0142902D01*
X0656103Y0142774D01*
X0656002Y0142649D01*
X0655898Y0142527D01*
X0655791Y0142407D01*
X0655681Y0142290D01*
X0655568Y0142175D01*
X0655452Y0142064D01*
X0655333Y0141955D01*
X0655212Y0141850D01*
X0655088Y0141747D01*
X0654962Y0141647D01*
X0654834Y0141551D01*
X0654703Y0141458D01*
X0654569Y0141368D01*
X0654434Y0141281D01*
X0654296Y0141198D01*
X0654157Y0141118D01*
X0654015Y0141042D01*
X0653872Y0140969D01*
X0653727Y0140900D01*
X0653580Y0140834D01*
X0653432Y0140772D01*
X0653282Y0140714D01*
X0653131Y0140659D01*
X0652978Y0140608D01*
X0652824Y0140561D01*
X0652669Y0140518D01*
X0652513Y0140479D01*
X0652357Y0140443D01*
X0652199Y0140412D01*
X0652041Y0140384D01*
X0651882Y0140360D01*
X0651722Y0140340D01*
X0651562Y0140324D01*
X0651402Y0140312D01*
X0651241Y0140304D01*
X0651080Y0140300D01*
X0650920Y0140300D01*
X0650759Y0140304D01*
X0650598Y0140312D01*
X0650438Y0140324D01*
X0650278Y0140340D01*
X0650118Y0140360D01*
X0649959Y0140384D01*
X0649801Y0140412D01*
X0649643Y0140443D01*
X0649487Y0140479D01*
X0649331Y0140518D01*
X0649176Y0140561D01*
X0649022Y0140608D01*
X0648869Y0140659D01*
X0648718Y0140714D01*
X0648568Y0140772D01*
X0648420Y0140834D01*
X0648273Y0140900D01*
X0648128Y0140969D01*
X0647985Y0141042D01*
X0647843Y0141118D01*
X0647704Y0141198D01*
X0647566Y0141281D01*
X0647431Y0141368D01*
X0647297Y0141458D01*
X0647166Y0141551D01*
X0647038Y0141647D01*
X0646912Y0141747D01*
X0646788Y0141850D01*
X0646667Y0141955D01*
X0646548Y0142064D01*
X0646432Y0142175D01*
X0646319Y0142290D01*
X0646209Y0142407D01*
X0646102Y0142527D01*
X0645998Y0142649D01*
X0645897Y0142774D01*
X0645799Y0142902D01*
X0645704Y0143032D01*
X0645612Y0143164D01*
X0645524Y0143298D01*
X0645439Y0143435D01*
X0645357Y0143573D01*
X0645279Y0143714D01*
X0645205Y0143856D01*
X0645134Y0144000D01*
X0645066Y0144146D01*
X0645003Y0144294D01*
X0644942Y0144443D01*
X0644886Y0144594D01*
X0644833Y0144746D01*
X0644784Y0144899D01*
X0644739Y0145053D01*
X0644698Y0145208D01*
X0644660Y0145365D01*
X0644627Y0145522D01*
X0644597Y0145680D01*
X0644571Y0145839D01*
X0644550Y0145998D01*
X0644532Y0146158D01*
X0644518Y0146318D01*
X0644508Y0146479D01*
X0644502Y0146639D01*
X0644500Y0146800D01*
X0651000Y0166800D02*
X0651483Y0166794D01*
X0651966Y0166777D01*
X0652449Y0166747D01*
X0652930Y0166707D01*
X0653411Y0166654D01*
X0653890Y0166590D01*
X0654367Y0166515D01*
X0654843Y0166427D01*
X0655316Y0166329D01*
X0655786Y0166219D01*
X0656254Y0166098D01*
X0656719Y0165965D01*
X0657180Y0165821D01*
X0657638Y0165666D01*
X0658092Y0165500D01*
X0658542Y0165323D01*
X0658987Y0165136D01*
X0659428Y0164937D01*
X0659864Y0164729D01*
X0660294Y0164509D01*
X0660720Y0164279D01*
X0661139Y0164039D01*
X0661553Y0163789D01*
X0661960Y0163529D01*
X0662361Y0163260D01*
X0662756Y0162980D01*
X0663143Y0162692D01*
X0663524Y0162393D01*
X0663897Y0162086D01*
X0664262Y0161770D01*
X0664620Y0161445D01*
X0664970Y0161112D01*
X0665312Y0160770D01*
X0665645Y0160420D01*
X0665970Y0160062D01*
X0666286Y0159697D01*
X0666593Y0159324D01*
X0666892Y0158943D01*
X0667180Y0158556D01*
X0667460Y0158161D01*
X0667729Y0157760D01*
X0667989Y0157353D01*
X0668239Y0156939D01*
X0668479Y0156520D01*
X0668709Y0156094D01*
X0668929Y0155664D01*
X0669137Y0155228D01*
X0669336Y0154787D01*
X0669523Y0154342D01*
X0669700Y0153892D01*
X0669866Y0153438D01*
X0670021Y0152980D01*
X0670165Y0152519D01*
X0670298Y0152054D01*
X0670419Y0151586D01*
X0670529Y0151116D01*
X0670627Y0150643D01*
X0670715Y0150167D01*
X0670790Y0149690D01*
X0670854Y0149211D01*
X0670907Y0148730D01*
X0670947Y0148249D01*
X0670977Y0147766D01*
X0670994Y0147283D01*
X0671000Y0146800D01*
X0651000Y0166800D02*
X0021000Y0166800D01*
X0014500Y0146800D02*
X0014502Y0146961D01*
X0014508Y0147121D01*
X0014518Y0147282D01*
X0014532Y0147442D01*
X0014550Y0147602D01*
X0014571Y0147761D01*
X0014597Y0147920D01*
X0014627Y0148078D01*
X0014660Y0148235D01*
X0014698Y0148392D01*
X0014739Y0148547D01*
X0014784Y0148701D01*
X0014833Y0148854D01*
X0014886Y0149006D01*
X0014942Y0149157D01*
X0015003Y0149306D01*
X0015066Y0149454D01*
X0015134Y0149600D01*
X0015205Y0149744D01*
X0015279Y0149886D01*
X0015357Y0150027D01*
X0015439Y0150165D01*
X0015524Y0150302D01*
X0015612Y0150436D01*
X0015704Y0150568D01*
X0015799Y0150698D01*
X0015897Y0150826D01*
X0015998Y0150951D01*
X0016102Y0151073D01*
X0016209Y0151193D01*
X0016319Y0151310D01*
X0016432Y0151425D01*
X0016548Y0151536D01*
X0016667Y0151645D01*
X0016788Y0151750D01*
X0016912Y0151853D01*
X0017038Y0151953D01*
X0017166Y0152049D01*
X0017297Y0152142D01*
X0017431Y0152232D01*
X0017566Y0152319D01*
X0017704Y0152402D01*
X0017843Y0152482D01*
X0017985Y0152558D01*
X0018128Y0152631D01*
X0018273Y0152700D01*
X0018420Y0152766D01*
X0018568Y0152828D01*
X0018718Y0152886D01*
X0018869Y0152941D01*
X0019022Y0152992D01*
X0019176Y0153039D01*
X0019331Y0153082D01*
X0019487Y0153121D01*
X0019643Y0153157D01*
X0019801Y0153188D01*
X0019959Y0153216D01*
X0020118Y0153240D01*
X0020278Y0153260D01*
X0020438Y0153276D01*
X0020598Y0153288D01*
X0020759Y0153296D01*
X0020920Y0153300D01*
X0021080Y0153300D01*
X0021241Y0153296D01*
X0021402Y0153288D01*
X0021562Y0153276D01*
X0021722Y0153260D01*
X0021882Y0153240D01*
X0022041Y0153216D01*
X0022199Y0153188D01*
X0022357Y0153157D01*
X0022513Y0153121D01*
X0022669Y0153082D01*
X0022824Y0153039D01*
X0022978Y0152992D01*
X0023131Y0152941D01*
X0023282Y0152886D01*
X0023432Y0152828D01*
X0023580Y0152766D01*
X0023727Y0152700D01*
X0023872Y0152631D01*
X0024015Y0152558D01*
X0024157Y0152482D01*
X0024296Y0152402D01*
X0024434Y0152319D01*
X0024569Y0152232D01*
X0024703Y0152142D01*
X0024834Y0152049D01*
X0024962Y0151953D01*
X0025088Y0151853D01*
X0025212Y0151750D01*
X0025333Y0151645D01*
X0025452Y0151536D01*
X0025568Y0151425D01*
X0025681Y0151310D01*
X0025791Y0151193D01*
X0025898Y0151073D01*
X0026002Y0150951D01*
X0026103Y0150826D01*
X0026201Y0150698D01*
X0026296Y0150568D01*
X0026388Y0150436D01*
X0026476Y0150302D01*
X0026561Y0150165D01*
X0026643Y0150027D01*
X0026721Y0149886D01*
X0026795Y0149744D01*
X0026866Y0149600D01*
X0026934Y0149454D01*
X0026997Y0149306D01*
X0027058Y0149157D01*
X0027114Y0149006D01*
X0027167Y0148854D01*
X0027216Y0148701D01*
X0027261Y0148547D01*
X0027302Y0148392D01*
X0027340Y0148235D01*
X0027373Y0148078D01*
X0027403Y0147920D01*
X0027429Y0147761D01*
X0027450Y0147602D01*
X0027468Y0147442D01*
X0027482Y0147282D01*
X0027492Y0147121D01*
X0027498Y0146961D01*
X0027500Y0146800D01*
X0027498Y0146639D01*
X0027492Y0146479D01*
X0027482Y0146318D01*
X0027468Y0146158D01*
X0027450Y0145998D01*
X0027429Y0145839D01*
X0027403Y0145680D01*
X0027373Y0145522D01*
X0027340Y0145365D01*
X0027302Y0145208D01*
X0027261Y0145053D01*
X0027216Y0144899D01*
X0027167Y0144746D01*
X0027114Y0144594D01*
X0027058Y0144443D01*
X0026997Y0144294D01*
X0026934Y0144146D01*
X0026866Y0144000D01*
X0026795Y0143856D01*
X0026721Y0143714D01*
X0026643Y0143573D01*
X0026561Y0143435D01*
X0026476Y0143298D01*
X0026388Y0143164D01*
X0026296Y0143032D01*
X0026201Y0142902D01*
X0026103Y0142774D01*
X0026002Y0142649D01*
X0025898Y0142527D01*
X0025791Y0142407D01*
X0025681Y0142290D01*
X0025568Y0142175D01*
X0025452Y0142064D01*
X0025333Y0141955D01*
X0025212Y0141850D01*
X0025088Y0141747D01*
X0024962Y0141647D01*
X0024834Y0141551D01*
X0024703Y0141458D01*
X0024569Y0141368D01*
X0024434Y0141281D01*
X0024296Y0141198D01*
X0024157Y0141118D01*
X0024015Y0141042D01*
X0023872Y0140969D01*
X0023727Y0140900D01*
X0023580Y0140834D01*
X0023432Y0140772D01*
X0023282Y0140714D01*
X0023131Y0140659D01*
X0022978Y0140608D01*
X0022824Y0140561D01*
X0022669Y0140518D01*
X0022513Y0140479D01*
X0022357Y0140443D01*
X0022199Y0140412D01*
X0022041Y0140384D01*
X0021882Y0140360D01*
X0021722Y0140340D01*
X0021562Y0140324D01*
X0021402Y0140312D01*
X0021241Y0140304D01*
X0021080Y0140300D01*
X0020920Y0140300D01*
X0020759Y0140304D01*
X0020598Y0140312D01*
X0020438Y0140324D01*
X0020278Y0140340D01*
X0020118Y0140360D01*
X0019959Y0140384D01*
X0019801Y0140412D01*
X0019643Y0140443D01*
X0019487Y0140479D01*
X0019331Y0140518D01*
X0019176Y0140561D01*
X0019022Y0140608D01*
X0018869Y0140659D01*
X0018718Y0140714D01*
X0018568Y0140772D01*
X0018420Y0140834D01*
X0018273Y0140900D01*
X0018128Y0140969D01*
X0017985Y0141042D01*
X0017843Y0141118D01*
X0017704Y0141198D01*
X0017566Y0141281D01*
X0017431Y0141368D01*
X0017297Y0141458D01*
X0017166Y0141551D01*
X0017038Y0141647D01*
X0016912Y0141747D01*
X0016788Y0141850D01*
X0016667Y0141955D01*
X0016548Y0142064D01*
X0016432Y0142175D01*
X0016319Y0142290D01*
X0016209Y0142407D01*
X0016102Y0142527D01*
X0015998Y0142649D01*
X0015897Y0142774D01*
X0015799Y0142902D01*
X0015704Y0143032D01*
X0015612Y0143164D01*
X0015524Y0143298D01*
X0015439Y0143435D01*
X0015357Y0143573D01*
X0015279Y0143714D01*
X0015205Y0143856D01*
X0015134Y0144000D01*
X0015066Y0144146D01*
X0015003Y0144294D01*
X0014942Y0144443D01*
X0014886Y0144594D01*
X0014833Y0144746D01*
X0014784Y0144899D01*
X0014739Y0145053D01*
X0014698Y0145208D01*
X0014660Y0145365D01*
X0014627Y0145522D01*
X0014597Y0145680D01*
X0014571Y0145839D01*
X0014550Y0145998D01*
X0014532Y0146158D01*
X0014518Y0146318D01*
X0014508Y0146479D01*
X0014502Y0146639D01*
X0014500Y0146800D01*
X0001000Y0146800D02*
X0001006Y0147283D01*
X0001023Y0147766D01*
X0001053Y0148249D01*
X0001093Y0148730D01*
X0001146Y0149211D01*
X0001210Y0149690D01*
X0001285Y0150167D01*
X0001373Y0150643D01*
X0001471Y0151116D01*
X0001581Y0151586D01*
X0001702Y0152054D01*
X0001835Y0152519D01*
X0001979Y0152980D01*
X0002134Y0153438D01*
X0002300Y0153892D01*
X0002477Y0154342D01*
X0002664Y0154787D01*
X0002863Y0155228D01*
X0003071Y0155664D01*
X0003291Y0156094D01*
X0003521Y0156520D01*
X0003761Y0156939D01*
X0004011Y0157353D01*
X0004271Y0157760D01*
X0004540Y0158161D01*
X0004820Y0158556D01*
X0005108Y0158943D01*
X0005407Y0159324D01*
X0005714Y0159697D01*
X0006030Y0160062D01*
X0006355Y0160420D01*
X0006688Y0160770D01*
X0007030Y0161112D01*
X0007380Y0161445D01*
X0007738Y0161770D01*
X0008103Y0162086D01*
X0008476Y0162393D01*
X0008857Y0162692D01*
X0009244Y0162980D01*
X0009639Y0163260D01*
X0010040Y0163529D01*
X0010447Y0163789D01*
X0010861Y0164039D01*
X0011280Y0164279D01*
X0011706Y0164509D01*
X0012136Y0164729D01*
X0012572Y0164937D01*
X0013013Y0165136D01*
X0013458Y0165323D01*
X0013908Y0165500D01*
X0014362Y0165666D01*
X0014820Y0165821D01*
X0015281Y0165965D01*
X0015746Y0166098D01*
X0016214Y0166219D01*
X0016684Y0166329D01*
X0017157Y0166427D01*
X0017633Y0166515D01*
X0018110Y0166590D01*
X0018589Y0166654D01*
X0019070Y0166707D01*
X0019551Y0166747D01*
X0020034Y0166777D01*
X0020517Y0166794D01*
X0021000Y0166800D01*
X0001000Y0146800D02*
X0001000Y0021800D01*
X0014500Y0021800D02*
X0014502Y0021961D01*
X0014508Y0022121D01*
X0014518Y0022282D01*
X0014532Y0022442D01*
X0014550Y0022602D01*
X0014571Y0022761D01*
X0014597Y0022920D01*
X0014627Y0023078D01*
X0014660Y0023235D01*
X0014698Y0023392D01*
X0014739Y0023547D01*
X0014784Y0023701D01*
X0014833Y0023854D01*
X0014886Y0024006D01*
X0014942Y0024157D01*
X0015003Y0024306D01*
X0015066Y0024454D01*
X0015134Y0024600D01*
X0015205Y0024744D01*
X0015279Y0024886D01*
X0015357Y0025027D01*
X0015439Y0025165D01*
X0015524Y0025302D01*
X0015612Y0025436D01*
X0015704Y0025568D01*
X0015799Y0025698D01*
X0015897Y0025826D01*
X0015998Y0025951D01*
X0016102Y0026073D01*
X0016209Y0026193D01*
X0016319Y0026310D01*
X0016432Y0026425D01*
X0016548Y0026536D01*
X0016667Y0026645D01*
X0016788Y0026750D01*
X0016912Y0026853D01*
X0017038Y0026953D01*
X0017166Y0027049D01*
X0017297Y0027142D01*
X0017431Y0027232D01*
X0017566Y0027319D01*
X0017704Y0027402D01*
X0017843Y0027482D01*
X0017985Y0027558D01*
X0018128Y0027631D01*
X0018273Y0027700D01*
X0018420Y0027766D01*
X0018568Y0027828D01*
X0018718Y0027886D01*
X0018869Y0027941D01*
X0019022Y0027992D01*
X0019176Y0028039D01*
X0019331Y0028082D01*
X0019487Y0028121D01*
X0019643Y0028157D01*
X0019801Y0028188D01*
X0019959Y0028216D01*
X0020118Y0028240D01*
X0020278Y0028260D01*
X0020438Y0028276D01*
X0020598Y0028288D01*
X0020759Y0028296D01*
X0020920Y0028300D01*
X0021080Y0028300D01*
X0021241Y0028296D01*
X0021402Y0028288D01*
X0021562Y0028276D01*
X0021722Y0028260D01*
X0021882Y0028240D01*
X0022041Y0028216D01*
X0022199Y0028188D01*
X0022357Y0028157D01*
X0022513Y0028121D01*
X0022669Y0028082D01*
X0022824Y0028039D01*
X0022978Y0027992D01*
X0023131Y0027941D01*
X0023282Y0027886D01*
X0023432Y0027828D01*
X0023580Y0027766D01*
X0023727Y0027700D01*
X0023872Y0027631D01*
X0024015Y0027558D01*
X0024157Y0027482D01*
X0024296Y0027402D01*
X0024434Y0027319D01*
X0024569Y0027232D01*
X0024703Y0027142D01*
X0024834Y0027049D01*
X0024962Y0026953D01*
X0025088Y0026853D01*
X0025212Y0026750D01*
X0025333Y0026645D01*
X0025452Y0026536D01*
X0025568Y0026425D01*
X0025681Y0026310D01*
X0025791Y0026193D01*
X0025898Y0026073D01*
X0026002Y0025951D01*
X0026103Y0025826D01*
X0026201Y0025698D01*
X0026296Y0025568D01*
X0026388Y0025436D01*
X0026476Y0025302D01*
X0026561Y0025165D01*
X0026643Y0025027D01*
X0026721Y0024886D01*
X0026795Y0024744D01*
X0026866Y0024600D01*
X0026934Y0024454D01*
X0026997Y0024306D01*
X0027058Y0024157D01*
X0027114Y0024006D01*
X0027167Y0023854D01*
X0027216Y0023701D01*
X0027261Y0023547D01*
X0027302Y0023392D01*
X0027340Y0023235D01*
X0027373Y0023078D01*
X0027403Y0022920D01*
X0027429Y0022761D01*
X0027450Y0022602D01*
X0027468Y0022442D01*
X0027482Y0022282D01*
X0027492Y0022121D01*
X0027498Y0021961D01*
X0027500Y0021800D01*
X0027498Y0021639D01*
X0027492Y0021479D01*
X0027482Y0021318D01*
X0027468Y0021158D01*
X0027450Y0020998D01*
X0027429Y0020839D01*
X0027403Y0020680D01*
X0027373Y0020522D01*
X0027340Y0020365D01*
X0027302Y0020208D01*
X0027261Y0020053D01*
X0027216Y0019899D01*
X0027167Y0019746D01*
X0027114Y0019594D01*
X0027058Y0019443D01*
X0026997Y0019294D01*
X0026934Y0019146D01*
X0026866Y0019000D01*
X0026795Y0018856D01*
X0026721Y0018714D01*
X0026643Y0018573D01*
X0026561Y0018435D01*
X0026476Y0018298D01*
X0026388Y0018164D01*
X0026296Y0018032D01*
X0026201Y0017902D01*
X0026103Y0017774D01*
X0026002Y0017649D01*
X0025898Y0017527D01*
X0025791Y0017407D01*
X0025681Y0017290D01*
X0025568Y0017175D01*
X0025452Y0017064D01*
X0025333Y0016955D01*
X0025212Y0016850D01*
X0025088Y0016747D01*
X0024962Y0016647D01*
X0024834Y0016551D01*
X0024703Y0016458D01*
X0024569Y0016368D01*
X0024434Y0016281D01*
X0024296Y0016198D01*
X0024157Y0016118D01*
X0024015Y0016042D01*
X0023872Y0015969D01*
X0023727Y0015900D01*
X0023580Y0015834D01*
X0023432Y0015772D01*
X0023282Y0015714D01*
X0023131Y0015659D01*
X0022978Y0015608D01*
X0022824Y0015561D01*
X0022669Y0015518D01*
X0022513Y0015479D01*
X0022357Y0015443D01*
X0022199Y0015412D01*
X0022041Y0015384D01*
X0021882Y0015360D01*
X0021722Y0015340D01*
X0021562Y0015324D01*
X0021402Y0015312D01*
X0021241Y0015304D01*
X0021080Y0015300D01*
X0020920Y0015300D01*
X0020759Y0015304D01*
X0020598Y0015312D01*
X0020438Y0015324D01*
X0020278Y0015340D01*
X0020118Y0015360D01*
X0019959Y0015384D01*
X0019801Y0015412D01*
X0019643Y0015443D01*
X0019487Y0015479D01*
X0019331Y0015518D01*
X0019176Y0015561D01*
X0019022Y0015608D01*
X0018869Y0015659D01*
X0018718Y0015714D01*
X0018568Y0015772D01*
X0018420Y0015834D01*
X0018273Y0015900D01*
X0018128Y0015969D01*
X0017985Y0016042D01*
X0017843Y0016118D01*
X0017704Y0016198D01*
X0017566Y0016281D01*
X0017431Y0016368D01*
X0017297Y0016458D01*
X0017166Y0016551D01*
X0017038Y0016647D01*
X0016912Y0016747D01*
X0016788Y0016850D01*
X0016667Y0016955D01*
X0016548Y0017064D01*
X0016432Y0017175D01*
X0016319Y0017290D01*
X0016209Y0017407D01*
X0016102Y0017527D01*
X0015998Y0017649D01*
X0015897Y0017774D01*
X0015799Y0017902D01*
X0015704Y0018032D01*
X0015612Y0018164D01*
X0015524Y0018298D01*
X0015439Y0018435D01*
X0015357Y0018573D01*
X0015279Y0018714D01*
X0015205Y0018856D01*
X0015134Y0019000D01*
X0015066Y0019146D01*
X0015003Y0019294D01*
X0014942Y0019443D01*
X0014886Y0019594D01*
X0014833Y0019746D01*
X0014784Y0019899D01*
X0014739Y0020053D01*
X0014698Y0020208D01*
X0014660Y0020365D01*
X0014627Y0020522D01*
X0014597Y0020680D01*
X0014571Y0020839D01*
X0014550Y0020998D01*
X0014532Y0021158D01*
X0014518Y0021318D01*
X0014508Y0021479D01*
X0014502Y0021639D01*
X0014500Y0021800D01*
X0001000Y0021800D02*
X0001006Y0021317D01*
X0001023Y0020834D01*
X0001053Y0020351D01*
X0001093Y0019870D01*
X0001146Y0019389D01*
X0001210Y0018910D01*
X0001285Y0018433D01*
X0001373Y0017957D01*
X0001471Y0017484D01*
X0001581Y0017014D01*
X0001702Y0016546D01*
X0001835Y0016081D01*
X0001979Y0015620D01*
X0002134Y0015162D01*
X0002300Y0014708D01*
X0002477Y0014258D01*
X0002664Y0013813D01*
X0002863Y0013372D01*
X0003071Y0012936D01*
X0003291Y0012506D01*
X0003521Y0012080D01*
X0003761Y0011661D01*
X0004011Y0011247D01*
X0004271Y0010840D01*
X0004540Y0010439D01*
X0004820Y0010044D01*
X0005108Y0009657D01*
X0005407Y0009276D01*
X0005714Y0008903D01*
X0006030Y0008538D01*
X0006355Y0008180D01*
X0006688Y0007830D01*
X0007030Y0007488D01*
X0007380Y0007155D01*
X0007738Y0006830D01*
X0008103Y0006514D01*
X0008476Y0006207D01*
X0008857Y0005908D01*
X0009244Y0005620D01*
X0009639Y0005340D01*
X0010040Y0005071D01*
X0010447Y0004811D01*
X0010861Y0004561D01*
X0011280Y0004321D01*
X0011706Y0004091D01*
X0012136Y0003871D01*
X0012572Y0003663D01*
X0013013Y0003464D01*
X0013458Y0003277D01*
X0013908Y0003100D01*
X0014362Y0002934D01*
X0014820Y0002779D01*
X0015281Y0002635D01*
X0015746Y0002502D01*
X0016214Y0002381D01*
X0016684Y0002271D01*
X0017157Y0002173D01*
X0017633Y0002085D01*
X0018110Y0002010D01*
X0018589Y0001946D01*
X0019070Y0001893D01*
X0019551Y0001853D01*
X0020034Y0001823D01*
X0020517Y0001806D01*
X0021000Y0001800D01*
M02*
