G75*
%MOIN*%
%OFA0B0*%
%FSLAX25Y25*%
%IPPOS*%
%LPD*%
%AMOC8*
5,1,8,0,0,1.08239X$1,22.5*
%
%ADD10C,0.07400*%
%ADD11C,0.06600*%
%ADD12C,0.10000*%
%ADD13C,0.05740*%
%ADD14C,0.13055*%
%ADD15C,0.08000*%
%ADD16OC8,0.06800*%
%ADD17OC8,0.07400*%
%ADD18C,0.03200*%
%ADD19C,0.01600*%
%ADD20C,0.03569*%
D10*
X0563500Y0056800D03*
X0563500Y0066800D03*
X0593500Y0066800D03*
X0593500Y0056800D03*
X0621000Y0040000D03*
X0621000Y0029300D03*
X0621000Y0018600D03*
X0593500Y0029300D03*
X0583500Y0019300D03*
X0573500Y0029300D03*
D11*
X0089000Y0011800D03*
X0099000Y0011800D03*
X0109000Y0011800D03*
X0119000Y0011800D03*
X0215000Y0011800D03*
X0225000Y0011800D03*
X0235000Y0011800D03*
X0245000Y0011800D03*
X0341000Y0011800D03*
X0351000Y0011800D03*
X0361000Y0011800D03*
X0371000Y0011800D03*
X0467000Y0011800D03*
X0477000Y0011800D03*
X0487000Y0011800D03*
X0497000Y0011800D03*
X0573500Y0039300D03*
X0593500Y0039300D03*
D12*
X0624583Y0140800D03*
X0447417Y0140800D03*
X0424583Y0140800D03*
X0247417Y0140800D03*
X0224583Y0140800D03*
X0047417Y0140800D03*
D13*
X0617461Y0098080D02*
X0623201Y0098080D01*
X0623201Y0088237D02*
X0617461Y0088237D01*
X0617461Y0080363D02*
X0623201Y0080363D01*
X0623201Y0070520D02*
X0617461Y0070520D01*
D14*
X0631000Y0058434D03*
X0631000Y0110166D03*
D15*
X0554750Y0042300D03*
X0554750Y0031300D03*
D16*
X0563500Y0076800D03*
X0573500Y0076800D03*
X0583500Y0076800D03*
X0593500Y0076800D03*
X0593500Y0106800D03*
X0583500Y0106800D03*
X0573500Y0106800D03*
X0563500Y0106800D03*
D17*
X0573500Y0130550D03*
X0583500Y0130550D03*
X0583500Y0140550D03*
X0573500Y0140550D03*
X0573500Y0150550D03*
X0583500Y0150550D03*
D18*
X0596000Y0150550D01*
X0624750Y0121800D01*
X0638500Y0121800D01*
X0643500Y0116800D01*
X0643500Y0078050D01*
X0636000Y0070550D01*
X0620360Y0070550D01*
X0620331Y0098080D02*
X0616000Y0102499D01*
X0616000Y0119300D01*
X0604750Y0130550D01*
X0586000Y0130550D01*
X0583500Y0128050D01*
X0583500Y0123050D01*
X0579750Y0119300D01*
X0572250Y0119300D01*
X0563500Y0110550D01*
X0563500Y0106800D01*
X0583500Y0130550D02*
X0586000Y0130550D01*
X0492000Y0036800D02*
X0487000Y0036800D01*
X0492000Y0036800D02*
X0497000Y0031800D01*
X0497000Y0011800D01*
X0386000Y0031800D02*
X0363500Y0031800D01*
X0260000Y0031800D02*
X0237500Y0031800D01*
X0134000Y0031800D02*
X0111500Y0031800D01*
D19*
X0101500Y0026800D02*
X0129000Y0026800D01*
X0124000Y0021800D02*
X0091500Y0021800D01*
X0217500Y0021800D02*
X0250000Y0021800D01*
X0255000Y0026800D02*
X0227500Y0026800D01*
X0343500Y0021800D02*
X0376000Y0021800D01*
X0381000Y0026800D02*
X0353500Y0026800D01*
X0467000Y0011800D02*
X0467250Y0049300D01*
X0484750Y0066800D01*
X0563500Y0066800D01*
X0549750Y0080550D01*
X0549750Y0124300D01*
X0566000Y0140550D01*
X0573500Y0140550D01*
X0581000Y0114300D02*
X0596000Y0114300D01*
X0611000Y0099300D01*
X0611000Y0090550D01*
X0613894Y0088050D01*
X0620331Y0088237D01*
X0606000Y0089300D02*
X0606000Y0024300D01*
X0601000Y0019300D01*
X0583500Y0019300D01*
X0564750Y0056800D02*
X0571000Y0063050D01*
X0571000Y0070550D01*
X0564750Y0076800D01*
X0563500Y0076800D01*
X0563500Y0056800D02*
X0497250Y0056800D01*
X0477000Y0036800D01*
X0477000Y0011800D01*
X0563500Y0056800D02*
X0564750Y0056800D01*
X0620331Y0070520D02*
X0620360Y0070550D01*
X0606000Y0089300D02*
X0598500Y0096800D01*
X0593500Y0096800D01*
X0583500Y0106800D01*
X0581000Y0114300D02*
X0573500Y0106800D01*
D20*
X0487000Y0036800D03*
X0386000Y0031800D03*
X0381000Y0026800D03*
X0376000Y0021800D03*
X0363500Y0031800D03*
X0353500Y0026800D03*
X0343500Y0021800D03*
X0260000Y0031800D03*
X0255000Y0026800D03*
X0250000Y0021800D03*
X0237500Y0031800D03*
X0227500Y0026800D03*
X0217500Y0021800D03*
X0134000Y0031800D03*
X0129000Y0026800D03*
X0124000Y0021800D03*
X0111500Y0031800D03*
X0101500Y0026800D03*
X0091500Y0021800D03*
M02*
