%
M48
M72
T01C0.0197
T02C0.0320
T03C0.0354
T04C0.0374
T05C0.0394
T06C0.0400
T07C0.0906
T08C0.1300
%
T01
X9150Y2180
X10150Y2680
X11150Y3180
X12400Y2180
X12900Y2680
X13400Y3180
X21750Y2180
X22750Y2680
X23750Y3180
X25500Y2680
X25000Y2180
X26000Y3180
X34350Y2180
X35350Y2680
X36350Y3180
X38100Y2680
X37600Y2180
X38600Y3180
X48700Y3680
T02
X56350Y7680
X57350Y7680
X58350Y7680
X59350Y7680
X59350Y10680
X58350Y10680
X57350Y10680
X56350Y10680
T03
X56350Y6680
X56350Y5680
X59350Y5680
X59350Y6680
T04
X62033Y7052
X62033Y8036
X62033Y8824
X62033Y9808
T05
X62458Y14080
X44742Y14080
X42458Y14080
X24742Y14080
X22458Y14080
X4742Y14080
X8900Y1180
X9900Y1180
X10900Y1180
X11900Y1180
X21500Y1180
X22500Y1180
X23500Y1180
X24500Y1180
X34100Y1180
X35100Y1180
X36100Y1180
X37100Y1180
X46700Y1180
X47700Y1180
X48700Y1180
X49700Y1180
X57350Y2930
X57350Y3930
X59350Y3930
X59350Y2930
X58350Y1930
T06
X55475Y3130
X55475Y4230
X62100Y4000
X62100Y2930
X62100Y1860
X58350Y13055
X57350Y13055
X57350Y14055
X58350Y14055
X58350Y15055
X57350Y15055
T07
X63100Y11017
X63100Y5843
T08
X2100Y2180
X2100Y14680
X65100Y14680
X65100Y2180
M30
