G75*
%MOIN*%
%OFA0B0*%
%FSLAX25Y25*%
%IPPOS*%
%LPD*%
%AMOC8*
5,1,8,0,0,1.08239X$1,22.5*
%
%ADD10C,0.01600*%
%ADD11C,0.01000*%
%ADD12C,0.00500*%
%ADD13C,0.00800*%
%ADD14C,0.00600*%
D10*
X0041000Y0001800D02*
X0041000Y0166800D01*
X0167000Y0166800D02*
X0167000Y0001800D01*
X0293000Y0001800D02*
X0293000Y0166800D01*
X0419000Y0166800D02*
X0419000Y0001800D01*
X0545000Y0001800D02*
X0545000Y0166800D01*
D11*
X0590672Y0096800D02*
X0590674Y0096906D01*
X0590680Y0097011D01*
X0590690Y0097117D01*
X0590704Y0097221D01*
X0590721Y0097326D01*
X0590743Y0097429D01*
X0590768Y0097532D01*
X0590798Y0097634D01*
X0590831Y0097734D01*
X0590867Y0097833D01*
X0590908Y0097931D01*
X0590952Y0098027D01*
X0591000Y0098121D01*
X0591051Y0098214D01*
X0591105Y0098305D01*
X0591163Y0098393D01*
X0591225Y0098479D01*
X0591289Y0098563D01*
X0591356Y0098645D01*
X0591427Y0098724D01*
X0591500Y0098800D01*
X0591576Y0098873D01*
X0591655Y0098944D01*
X0591737Y0099011D01*
X0591821Y0099075D01*
X0591907Y0099137D01*
X0591995Y0099195D01*
X0592086Y0099249D01*
X0592179Y0099300D01*
X0592273Y0099348D01*
X0592369Y0099392D01*
X0592467Y0099433D01*
X0592566Y0099469D01*
X0592666Y0099502D01*
X0592768Y0099532D01*
X0592871Y0099557D01*
X0592974Y0099579D01*
X0593079Y0099596D01*
X0593183Y0099610D01*
X0593289Y0099620D01*
X0593394Y0099626D01*
X0593500Y0099628D01*
X0593606Y0099626D01*
X0593711Y0099620D01*
X0593817Y0099610D01*
X0593921Y0099596D01*
X0594026Y0099579D01*
X0594129Y0099557D01*
X0594232Y0099532D01*
X0594334Y0099502D01*
X0594434Y0099469D01*
X0594533Y0099433D01*
X0594631Y0099392D01*
X0594727Y0099348D01*
X0594821Y0099300D01*
X0594914Y0099249D01*
X0595005Y0099195D01*
X0595093Y0099137D01*
X0595179Y0099075D01*
X0595263Y0099011D01*
X0595345Y0098944D01*
X0595424Y0098873D01*
X0595500Y0098800D01*
X0595573Y0098724D01*
X0595644Y0098645D01*
X0595711Y0098563D01*
X0595775Y0098479D01*
X0595837Y0098393D01*
X0595895Y0098305D01*
X0595949Y0098214D01*
X0596000Y0098121D01*
X0596048Y0098027D01*
X0596092Y0097931D01*
X0596133Y0097833D01*
X0596169Y0097734D01*
X0596202Y0097634D01*
X0596232Y0097532D01*
X0596257Y0097429D01*
X0596279Y0097326D01*
X0596296Y0097221D01*
X0596310Y0097117D01*
X0596320Y0097011D01*
X0596326Y0096906D01*
X0596328Y0096800D01*
X0596326Y0096694D01*
X0596320Y0096589D01*
X0596310Y0096483D01*
X0596296Y0096379D01*
X0596279Y0096274D01*
X0596257Y0096171D01*
X0596232Y0096068D01*
X0596202Y0095966D01*
X0596169Y0095866D01*
X0596133Y0095767D01*
X0596092Y0095669D01*
X0596048Y0095573D01*
X0596000Y0095479D01*
X0595949Y0095386D01*
X0595895Y0095295D01*
X0595837Y0095207D01*
X0595775Y0095121D01*
X0595711Y0095037D01*
X0595644Y0094955D01*
X0595573Y0094876D01*
X0595500Y0094800D01*
X0595424Y0094727D01*
X0595345Y0094656D01*
X0595263Y0094589D01*
X0595179Y0094525D01*
X0595093Y0094463D01*
X0595005Y0094405D01*
X0594914Y0094351D01*
X0594821Y0094300D01*
X0594727Y0094252D01*
X0594631Y0094208D01*
X0594533Y0094167D01*
X0594434Y0094131D01*
X0594334Y0094098D01*
X0594232Y0094068D01*
X0594129Y0094043D01*
X0594026Y0094021D01*
X0593921Y0094004D01*
X0593817Y0093990D01*
X0593711Y0093980D01*
X0593606Y0093974D01*
X0593500Y0093972D01*
X0593394Y0093974D01*
X0593289Y0093980D01*
X0593183Y0093990D01*
X0593079Y0094004D01*
X0592974Y0094021D01*
X0592871Y0094043D01*
X0592768Y0094068D01*
X0592666Y0094098D01*
X0592566Y0094131D01*
X0592467Y0094167D01*
X0592369Y0094208D01*
X0592273Y0094252D01*
X0592179Y0094300D01*
X0592086Y0094351D01*
X0591995Y0094405D01*
X0591907Y0094463D01*
X0591821Y0094525D01*
X0591737Y0094589D01*
X0591655Y0094656D01*
X0591576Y0094727D01*
X0591500Y0094800D01*
X0591427Y0094876D01*
X0591356Y0094955D01*
X0591289Y0095037D01*
X0591225Y0095121D01*
X0591163Y0095207D01*
X0591105Y0095295D01*
X0591051Y0095386D01*
X0591000Y0095479D01*
X0590952Y0095573D01*
X0590908Y0095669D01*
X0590867Y0095767D01*
X0590831Y0095866D01*
X0590798Y0095966D01*
X0590768Y0096068D01*
X0590743Y0096171D01*
X0590721Y0096274D01*
X0590704Y0096379D01*
X0590690Y0096483D01*
X0590680Y0096589D01*
X0590674Y0096694D01*
X0590672Y0096800D01*
X0559750Y0047300D02*
X0549750Y0047300D01*
X0549750Y0026300D01*
X0559750Y0026300D01*
X0559750Y0047300D01*
X0557250Y0036800D02*
X0552250Y0036800D01*
X0025508Y0066952D02*
X0016500Y0066952D01*
X0016500Y0065451D02*
X0016500Y0068454D01*
X0018001Y0071656D02*
X0021004Y0071656D01*
X0022505Y0073158D01*
X0022505Y0077661D01*
X0025508Y0077661D02*
X0016500Y0077661D01*
X0016500Y0073158D01*
X0018001Y0071656D01*
X0025508Y0068454D02*
X0025508Y0066952D01*
X0021004Y0062315D02*
X0018001Y0062315D01*
X0016500Y0060814D01*
X0016500Y0057811D01*
X0018001Y0056310D01*
X0021004Y0056310D01*
X0022505Y0057811D01*
X0022505Y0060814D01*
X0021004Y0062315D01*
X0021004Y0053107D02*
X0018001Y0053107D01*
X0016500Y0051606D01*
X0016500Y0047102D01*
X0014999Y0047102D02*
X0022505Y0047102D01*
X0022505Y0051606D01*
X0021004Y0053107D01*
X0013497Y0050105D02*
X0013497Y0048603D01*
X0014999Y0047102D01*
X0018001Y0043899D02*
X0016500Y0042398D01*
X0016500Y0037894D01*
X0014999Y0037894D02*
X0013497Y0039395D01*
X0013497Y0040897D01*
X0014999Y0037894D02*
X0022505Y0037894D01*
X0022505Y0043899D02*
X0018001Y0043899D01*
X0018001Y0080864D02*
X0021004Y0080864D01*
X0022505Y0082365D01*
X0022505Y0085368D01*
X0021004Y0086869D01*
X0018001Y0086869D01*
X0016500Y0085368D01*
X0016500Y0082365D01*
X0018001Y0080864D01*
X0016500Y0090072D02*
X0021004Y0090072D01*
X0022505Y0091573D01*
X0022505Y0096077D01*
X0016500Y0096077D01*
X0016500Y0099280D02*
X0021004Y0099280D01*
X0022505Y0100781D01*
X0022505Y0103784D01*
X0021004Y0105285D01*
X0022505Y0108488D02*
X0022505Y0112992D01*
X0021004Y0114493D01*
X0018001Y0114493D01*
X0016500Y0112992D01*
X0016500Y0108488D01*
X0016500Y0105285D02*
X0025508Y0105285D01*
X0021004Y0117696D02*
X0019503Y0117696D01*
X0019503Y0123701D01*
X0021004Y0123701D02*
X0018001Y0123701D01*
X0016500Y0122199D01*
X0016500Y0119197D01*
X0021004Y0117696D02*
X0022505Y0119197D01*
X0022505Y0122199D01*
X0021004Y0123701D01*
X0025508Y0126904D02*
X0025508Y0132909D01*
X0025508Y0129906D02*
X0016500Y0129906D01*
D12*
X0563500Y0049300D02*
X0563500Y0009300D01*
X0603500Y0009300D01*
X0603500Y0049300D01*
X0563500Y0049300D01*
X0583500Y0034300D02*
X0583500Y0029300D01*
X0575594Y0029300D02*
X0575596Y0029494D01*
X0575604Y0029688D01*
X0575615Y0029882D01*
X0575632Y0030075D01*
X0575653Y0030268D01*
X0575680Y0030460D01*
X0575710Y0030652D01*
X0575746Y0030842D01*
X0575786Y0031032D01*
X0575831Y0031221D01*
X0575880Y0031409D01*
X0575934Y0031595D01*
X0575993Y0031780D01*
X0576056Y0031963D01*
X0576124Y0032145D01*
X0576196Y0032325D01*
X0576272Y0032504D01*
X0576353Y0032680D01*
X0576438Y0032855D01*
X0576528Y0033027D01*
X0576621Y0033197D01*
X0576719Y0033364D01*
X0576821Y0033530D01*
X0576926Y0033692D01*
X0577036Y0033852D01*
X0577150Y0034010D01*
X0577267Y0034164D01*
X0577389Y0034316D01*
X0577514Y0034464D01*
X0577642Y0034609D01*
X0577774Y0034752D01*
X0577910Y0034890D01*
X0578048Y0035026D01*
X0578191Y0035158D01*
X0578336Y0035286D01*
X0578484Y0035411D01*
X0578636Y0035533D01*
X0578790Y0035650D01*
X0578948Y0035764D01*
X0579108Y0035874D01*
X0579270Y0035979D01*
X0579436Y0036081D01*
X0579603Y0036179D01*
X0579773Y0036272D01*
X0579945Y0036362D01*
X0580120Y0036447D01*
X0580296Y0036528D01*
X0580475Y0036604D01*
X0580655Y0036676D01*
X0580837Y0036744D01*
X0581020Y0036807D01*
X0581205Y0036866D01*
X0581391Y0036920D01*
X0581579Y0036969D01*
X0581768Y0037014D01*
X0581958Y0037054D01*
X0582148Y0037090D01*
X0582340Y0037120D01*
X0582532Y0037147D01*
X0582725Y0037168D01*
X0582918Y0037185D01*
X0583112Y0037196D01*
X0583306Y0037204D01*
X0583500Y0037206D01*
X0583694Y0037204D01*
X0583888Y0037196D01*
X0584082Y0037185D01*
X0584275Y0037168D01*
X0584468Y0037147D01*
X0584660Y0037120D01*
X0584852Y0037090D01*
X0585042Y0037054D01*
X0585232Y0037014D01*
X0585421Y0036969D01*
X0585609Y0036920D01*
X0585795Y0036866D01*
X0585980Y0036807D01*
X0586163Y0036744D01*
X0586345Y0036676D01*
X0586525Y0036604D01*
X0586704Y0036528D01*
X0586880Y0036447D01*
X0587055Y0036362D01*
X0587227Y0036272D01*
X0587397Y0036179D01*
X0587564Y0036081D01*
X0587730Y0035979D01*
X0587892Y0035874D01*
X0588052Y0035764D01*
X0588210Y0035650D01*
X0588364Y0035533D01*
X0588516Y0035411D01*
X0588664Y0035286D01*
X0588809Y0035158D01*
X0588952Y0035026D01*
X0589090Y0034890D01*
X0589226Y0034752D01*
X0589358Y0034609D01*
X0589486Y0034464D01*
X0589611Y0034316D01*
X0589733Y0034164D01*
X0589850Y0034010D01*
X0589964Y0033852D01*
X0590074Y0033692D01*
X0590179Y0033530D01*
X0590281Y0033364D01*
X0590379Y0033197D01*
X0590472Y0033027D01*
X0590562Y0032855D01*
X0590647Y0032680D01*
X0590728Y0032504D01*
X0590804Y0032325D01*
X0590876Y0032145D01*
X0590944Y0031963D01*
X0591007Y0031780D01*
X0591066Y0031595D01*
X0591120Y0031409D01*
X0591169Y0031221D01*
X0591214Y0031032D01*
X0591254Y0030842D01*
X0591290Y0030652D01*
X0591320Y0030460D01*
X0591347Y0030268D01*
X0591368Y0030075D01*
X0591385Y0029882D01*
X0591396Y0029688D01*
X0591404Y0029494D01*
X0591406Y0029300D01*
X0591404Y0029106D01*
X0591396Y0028912D01*
X0591385Y0028718D01*
X0591368Y0028525D01*
X0591347Y0028332D01*
X0591320Y0028140D01*
X0591290Y0027948D01*
X0591254Y0027758D01*
X0591214Y0027568D01*
X0591169Y0027379D01*
X0591120Y0027191D01*
X0591066Y0027005D01*
X0591007Y0026820D01*
X0590944Y0026637D01*
X0590876Y0026455D01*
X0590804Y0026275D01*
X0590728Y0026096D01*
X0590647Y0025920D01*
X0590562Y0025745D01*
X0590472Y0025573D01*
X0590379Y0025403D01*
X0590281Y0025236D01*
X0590179Y0025070D01*
X0590074Y0024908D01*
X0589964Y0024748D01*
X0589850Y0024590D01*
X0589733Y0024436D01*
X0589611Y0024284D01*
X0589486Y0024136D01*
X0589358Y0023991D01*
X0589226Y0023848D01*
X0589090Y0023710D01*
X0588952Y0023574D01*
X0588809Y0023442D01*
X0588664Y0023314D01*
X0588516Y0023189D01*
X0588364Y0023067D01*
X0588210Y0022950D01*
X0588052Y0022836D01*
X0587892Y0022726D01*
X0587730Y0022621D01*
X0587564Y0022519D01*
X0587397Y0022421D01*
X0587227Y0022328D01*
X0587055Y0022238D01*
X0586880Y0022153D01*
X0586704Y0022072D01*
X0586525Y0021996D01*
X0586345Y0021924D01*
X0586163Y0021856D01*
X0585980Y0021793D01*
X0585795Y0021734D01*
X0585609Y0021680D01*
X0585421Y0021631D01*
X0585232Y0021586D01*
X0585042Y0021546D01*
X0584852Y0021510D01*
X0584660Y0021480D01*
X0584468Y0021453D01*
X0584275Y0021432D01*
X0584082Y0021415D01*
X0583888Y0021404D01*
X0583694Y0021396D01*
X0583500Y0021394D01*
X0583306Y0021396D01*
X0583112Y0021404D01*
X0582918Y0021415D01*
X0582725Y0021432D01*
X0582532Y0021453D01*
X0582340Y0021480D01*
X0582148Y0021510D01*
X0581958Y0021546D01*
X0581768Y0021586D01*
X0581579Y0021631D01*
X0581391Y0021680D01*
X0581205Y0021734D01*
X0581020Y0021793D01*
X0580837Y0021856D01*
X0580655Y0021924D01*
X0580475Y0021996D01*
X0580296Y0022072D01*
X0580120Y0022153D01*
X0579945Y0022238D01*
X0579773Y0022328D01*
X0579603Y0022421D01*
X0579436Y0022519D01*
X0579270Y0022621D01*
X0579108Y0022726D01*
X0578948Y0022836D01*
X0578790Y0022950D01*
X0578636Y0023067D01*
X0578484Y0023189D01*
X0578336Y0023314D01*
X0578191Y0023442D01*
X0578048Y0023574D01*
X0577910Y0023710D01*
X0577774Y0023848D01*
X0577642Y0023991D01*
X0577514Y0024136D01*
X0577389Y0024284D01*
X0577267Y0024436D01*
X0577150Y0024590D01*
X0577036Y0024748D01*
X0576926Y0024908D01*
X0576821Y0025070D01*
X0576719Y0025236D01*
X0576621Y0025403D01*
X0576528Y0025573D01*
X0576438Y0025745D01*
X0576353Y0025920D01*
X0576272Y0026096D01*
X0576196Y0026275D01*
X0576124Y0026455D01*
X0576056Y0026637D01*
X0575993Y0026820D01*
X0575934Y0027005D01*
X0575880Y0027191D01*
X0575831Y0027379D01*
X0575786Y0027568D01*
X0575746Y0027758D01*
X0575710Y0027948D01*
X0575680Y0028140D01*
X0575653Y0028332D01*
X0575632Y0028525D01*
X0575615Y0028718D01*
X0575604Y0028912D01*
X0575596Y0029106D01*
X0575594Y0029300D01*
X0578500Y0029300D02*
X0583500Y0029300D01*
X0583500Y0024300D01*
X0583500Y0029300D02*
X0588500Y0029300D01*
X0591610Y0007803D02*
X0591610Y0004300D01*
X0589859Y0004300D01*
X0589275Y0004884D01*
X0589275Y0006051D01*
X0589859Y0006635D01*
X0591610Y0006635D01*
X0587927Y0006051D02*
X0587927Y0005468D01*
X0585592Y0005468D01*
X0585592Y0006051D02*
X0586175Y0006635D01*
X0587343Y0006635D01*
X0587927Y0006051D01*
X0587343Y0004300D02*
X0586175Y0004300D01*
X0585592Y0004884D01*
X0585592Y0006051D01*
X0584244Y0006051D02*
X0584244Y0005468D01*
X0581908Y0005468D01*
X0581908Y0006051D02*
X0582492Y0006635D01*
X0583660Y0006635D01*
X0584244Y0006051D01*
X0583660Y0004300D02*
X0582492Y0004300D01*
X0581908Y0004884D01*
X0581908Y0006051D01*
X0580561Y0006051D02*
X0580561Y0004884D01*
X0579977Y0004300D01*
X0578225Y0004300D01*
X0578225Y0003132D02*
X0578225Y0006635D01*
X0579977Y0006635D01*
X0580561Y0006051D01*
X0576877Y0005468D02*
X0576877Y0004884D01*
X0576294Y0004300D01*
X0575126Y0004300D01*
X0574542Y0004884D01*
X0575126Y0006051D02*
X0576294Y0006051D01*
X0576877Y0005468D01*
X0576877Y0007219D02*
X0576294Y0007803D01*
X0575126Y0007803D01*
X0574542Y0007219D01*
X0574542Y0006635D01*
X0575126Y0006051D01*
X0631250Y0012634D02*
X0631834Y0012050D01*
X0633001Y0012050D01*
X0633585Y0012634D01*
X0633585Y0014969D01*
X0633001Y0015553D01*
X0631834Y0015553D01*
X0631250Y0014969D01*
X0631250Y0012634D01*
X0634933Y0012050D02*
X0634933Y0014385D01*
X0636685Y0014385D01*
X0637268Y0013801D01*
X0637268Y0012050D01*
X0637972Y0042050D02*
X0637972Y0044969D01*
X0638556Y0045553D01*
X0638556Y0043801D02*
X0637389Y0043801D01*
X0636101Y0043801D02*
X0634933Y0043801D01*
X0635517Y0044969D02*
X0636101Y0045553D01*
X0635517Y0044969D02*
X0635517Y0042050D01*
X0633585Y0042634D02*
X0633585Y0044969D01*
X0633001Y0045553D01*
X0631834Y0045553D01*
X0631250Y0044969D01*
X0631250Y0042634D01*
X0631834Y0042050D01*
X0633001Y0042050D01*
X0633585Y0042634D01*
X0638000Y0055300D02*
X0615000Y0055300D01*
X0615000Y0113300D02*
X0638000Y0113300D01*
X0600952Y0128884D02*
X0600952Y0131219D01*
X0600368Y0131803D01*
X0598616Y0131803D01*
X0598616Y0128300D01*
X0600368Y0128300D01*
X0600952Y0128884D01*
X0597268Y0128300D02*
X0597268Y0131803D01*
X0594933Y0131803D02*
X0597268Y0128300D01*
X0594933Y0128300D02*
X0594933Y0131803D01*
X0593585Y0131219D02*
X0593001Y0131803D01*
X0591834Y0131803D01*
X0591250Y0131219D01*
X0591250Y0128884D01*
X0591834Y0128300D01*
X0593001Y0128300D01*
X0593585Y0128884D01*
X0593585Y0130051D01*
X0592418Y0130051D01*
D13*
X0588500Y0128050D02*
X0586000Y0125550D01*
X0571000Y0125550D01*
X0568500Y0128050D01*
X0568500Y0133050D01*
X0571000Y0135550D01*
X0586000Y0135550D01*
X0588500Y0133050D01*
X0588500Y0128050D01*
X0586000Y0135550D02*
X0588500Y0138050D01*
X0588500Y0143050D01*
X0586000Y0145550D01*
X0571000Y0145550D01*
X0568500Y0143050D01*
X0568500Y0138050D01*
X0571000Y0135550D01*
X0571000Y0145550D02*
X0568500Y0148050D01*
X0568500Y0153050D01*
X0571000Y0155550D01*
X0586000Y0155550D01*
X0588500Y0153050D01*
X0588500Y0148050D01*
X0586000Y0145550D01*
X0567181Y0148050D02*
X0567181Y0153050D01*
X0614819Y0113434D02*
X0614819Y0055166D01*
X0612437Y0047194D02*
X0612437Y0011406D01*
X0629563Y0011406D01*
X0629563Y0047194D01*
X0612437Y0047194D01*
X0588500Y0053800D02*
X0588500Y0056800D01*
X0589500Y0056800D01*
X0588500Y0056800D02*
X0588500Y0059800D01*
X0568500Y0059800D01*
X0568500Y0056800D01*
X0567500Y0056800D01*
X0568500Y0056800D02*
X0568500Y0053800D01*
X0588500Y0053800D01*
X0588500Y0063800D02*
X0568500Y0063800D01*
X0568500Y0066800D01*
X0567500Y0066800D01*
X0568500Y0066800D02*
X0568500Y0069800D01*
X0588500Y0069800D01*
X0588500Y0066800D01*
X0589500Y0066800D01*
X0588500Y0066800D02*
X0588500Y0063800D01*
X0598500Y0081800D02*
X0558500Y0081800D01*
X0558500Y0101800D01*
X0598500Y0101800D01*
X0598500Y0097800D01*
X0598500Y0095800D01*
X0598500Y0097800D02*
X0598500Y0081800D01*
D14*
X0583731Y0068003D02*
X0583731Y0064600D01*
X0583731Y0065734D02*
X0585432Y0066869D01*
X0583731Y0065734D02*
X0585432Y0064600D01*
X0582316Y0067436D02*
X0580048Y0065167D01*
X0580048Y0064600D01*
X0578773Y0064600D02*
X0578206Y0064600D01*
X0578206Y0065167D01*
X0578773Y0065167D01*
X0578773Y0064600D01*
X0576224Y0064600D02*
X0576224Y0068003D01*
X0574523Y0066301D01*
X0576791Y0066301D01*
X0580048Y0068003D02*
X0582316Y0068003D01*
X0582316Y0067436D01*
X0582316Y0058003D02*
X0582316Y0057436D01*
X0580048Y0055167D01*
X0580048Y0054600D01*
X0578773Y0054600D02*
X0578206Y0054600D01*
X0578206Y0055167D01*
X0578773Y0055167D01*
X0578773Y0054600D01*
X0576224Y0054600D02*
X0576224Y0058003D01*
X0574523Y0056301D01*
X0576791Y0056301D01*
X0580048Y0058003D02*
X0582316Y0058003D01*
X0583731Y0058003D02*
X0583731Y0054600D01*
X0583731Y0055734D02*
X0585432Y0056869D01*
X0583731Y0055734D02*
X0585432Y0054600D01*
X0469628Y0020601D02*
X0467893Y0020601D01*
X0469194Y0021902D01*
X0469194Y0019300D01*
X0466681Y0020601D02*
X0466248Y0020167D01*
X0464947Y0020167D01*
X0464947Y0019300D02*
X0464947Y0021902D01*
X0466248Y0021902D01*
X0466681Y0021469D01*
X0466681Y0020601D01*
X0463735Y0021902D02*
X0462867Y0021902D01*
X0463301Y0021902D02*
X0463301Y0019734D01*
X0462867Y0019300D01*
X0462434Y0019300D01*
X0462000Y0019734D01*
X0343628Y0019734D02*
X0343194Y0019300D01*
X0342327Y0019300D01*
X0341893Y0019734D01*
X0342760Y0020601D02*
X0343194Y0020601D01*
X0343628Y0020167D01*
X0343628Y0019734D01*
X0343194Y0020601D02*
X0343628Y0021035D01*
X0343628Y0021469D01*
X0343194Y0021902D01*
X0342327Y0021902D01*
X0341893Y0021469D01*
X0340681Y0021469D02*
X0340681Y0020601D01*
X0340248Y0020167D01*
X0338947Y0020167D01*
X0338947Y0019300D02*
X0338947Y0021902D01*
X0340248Y0021902D01*
X0340681Y0021469D01*
X0337735Y0021902D02*
X0336867Y0021902D01*
X0337301Y0021902D02*
X0337301Y0019734D01*
X0336867Y0019300D01*
X0336434Y0019300D01*
X0336000Y0019734D01*
X0217628Y0019300D02*
X0215893Y0019300D01*
X0217628Y0021035D01*
X0217628Y0021469D01*
X0217194Y0021902D01*
X0216327Y0021902D01*
X0215893Y0021469D01*
X0214681Y0021469D02*
X0214681Y0020601D01*
X0214248Y0020167D01*
X0212947Y0020167D01*
X0212947Y0019300D02*
X0212947Y0021902D01*
X0214248Y0021902D01*
X0214681Y0021469D01*
X0211735Y0021902D02*
X0210867Y0021902D01*
X0211301Y0021902D02*
X0211301Y0019734D01*
X0210867Y0019300D01*
X0210434Y0019300D01*
X0210000Y0019734D01*
X0091628Y0019300D02*
X0089893Y0019300D01*
X0090760Y0019300D02*
X0090760Y0021902D01*
X0089893Y0021035D01*
X0088681Y0021469D02*
X0088681Y0020601D01*
X0088248Y0020167D01*
X0086947Y0020167D01*
X0086947Y0019300D02*
X0086947Y0021902D01*
X0088248Y0021902D01*
X0088681Y0021469D01*
X0085735Y0021902D02*
X0084867Y0021902D01*
X0085301Y0021902D02*
X0085301Y0019734D01*
X0084867Y0019300D01*
X0084434Y0019300D01*
X0084000Y0019734D01*
M02*
